<svg width="640" height="640" xmlns="http://www.w3.org/2000/svg" xmlns:xlink="http://www.w3.org/1999/xlink" xml:space="preserve" overflow="hidden"><g transform="translate(-320 -40)"><g><g><g><g><path d="M322.5 148.17C322.5 89.81 369.81 42.5 428.17 42.5L851.83 42.5C910.19 42.5 957.5 89.81 957.5 148.17L957.5 570.83C957.5 629.19 910.19 676.5 851.83 676.5L428.17 676.5C369.81 676.5 322.5 629.19 322.5 570.83Z" stroke="#000000" stroke-width="3" stroke-linecap="butt" stroke-linejoin="miter" stroke-miterlimit="8" stroke-opacity="1" fill="#101827" fill-rule="evenodd" fill-opacity="1"/><path d="M507 305 571.86 529.04" stroke="#FFFFFF" stroke-width="60" stroke-linecap="round" stroke-linejoin="miter" stroke-miterlimit="8" stroke-opacity="1" fill="none" fill-rule="evenodd"/><path d="M0 0 64.8643 224.039" stroke="#FFFFFF" stroke-width="60" stroke-linecap="round" stroke-linejoin="miter" stroke-miterlimit="8" stroke-opacity="1" fill="none" fill-rule="evenodd" transform="matrix(-1 0 0 1 638.86 305)"/><path d="M640 305 704.86 529.04" stroke="#FFFFFF" stroke-width="60" stroke-linecap="round" stroke-linejoin="miter" stroke-miterlimit="8" stroke-opacity="1" fill="none" fill-rule="evenodd"/><path d="M0 0 64.8643 224.039" stroke="#FFFFFF" stroke-width="60" stroke-linecap="round" stroke-linejoin="miter" stroke-miterlimit="8" stroke-opacity="1" fill="none" fill-rule="evenodd" transform="matrix(-1 0 0 1 771.86 305)"/><path d="M769.5 221.5C769.5 197.2 789.2 177.5 813.5 177.5 837.8 177.5 857.5 197.2 857.5 221.5 857.5 245.8 837.8 265.5 813.5 265.5 789.2 265.5 769.5 245.8 769.5 221.5Z" stroke="#042433" stroke-width="3" stroke-linecap="butt" stroke-linejoin="miter" stroke-miterlimit="8" stroke-opacity="1" fill="#37B6EF" fill-rule="evenodd" fill-opacity="1"/></g></g></g></g></g></svg>